<svg width="34" height="31" viewBox="0 0 34 31" fill="none" xmlns="http://www.w3.org/2000/svg">
  <!-- Main envelope body in blue -->
  <path d="M31.2 25H3.7C2.2 25 0.9 23.9 0.9 22.5V4.5C0.9 3.1 2.2 2 3.7 2H31.2C32.7 2 34 3.1 34 4.5V22.5C34 23.9 32.7 25 31.2 25Z" fill="#00AAFF"/>
  
  <!-- White envelope triangular flaps -->
  <path d="M17.5 15L33 7V5L17.5 13L2 5V7L17.5 15Z" fill="white"/>
  
  <!-- White envelope lines -->
  <path d="M3 6L17.5 14L32 6" stroke="white" stroke-width="1.5" stroke-linecap="round"/>
  
  <!-- Orange notification bar at bottom -->
  <path d="M2 25L6 29H31.2C32.7 29 34 27.9 34 26.5V25H2Z" fill="#FC592D"/>
</svg>

